<?xml version="1.0" encoding="UTF-8"?>
<svg id="Layer_2" data-name="Layer 2" xmlns="http://www.w3.org/2000/svg" viewBox="0 0 113.64 68.59">
  <defs>
    <style>
      .cls-1 {
        fill: #a95236;
      }

      .cls-1, .cls-2, .cls-3, .cls-4 {
        stroke-width: 0px;
      }

      .cls-2 {
        fill: #6faec0;
      }

      .cls-3 {
        fill: #f7eeda;
      }

      .cls-4 {
        fill: #f2b035;
      }
    </style>
  </defs>
  <g id="Layer_1-2" data-name="Layer 1">
    <circle class="cls-3" cx="22.49" cy="21.25" r="17.4"/>
    <path class="cls-4" d="m32.16,65.05h0c-3.6-.02-7.2-.04-10.79-.07-10.83-.09-19.29-7.21-21.05-17.73-1.24-7.42,1.26-14.06,7.23-19.2,4.29-3.69,9.38-5.32,15.15-4.85.29-4.58,1.77-8.82,4.41-12.68C31.01,4.78,36.52,1.35,43.46.32c9.6-1.41,17.61,1.8,23.8,9.54.66.82,1.2,1.71,1.67,2.53,6.15-1.84,12.09-.9,17.74,2.79,4.39,2.87,7.3,7.35,8.67,13.33.17.74.27,1.32.34,1.87.02.16.03.33.04.49.48.03.94.07,1.41.13,3.96.48,7.45,2.06,10.09,4.57.6.57.62,1.52.05,2.12-.57.6-1.52.62-2.12.05-2.17-2.06-5.07-3.37-8.39-3.77-.55-.07-1.11-.1-1.7-.14-.3-.02-.6-.04-.91-.06l-1.32-.1-.08-1.92c0-.36-.02-.69-.06-1.02-.05-.45-.14-.92-.28-1.55-1.2-5.27-3.62-9.02-7.38-11.48-5.02-3.28-10.29-4.05-15.67-2.29-1.53.5-2.37-.32-2.8-1.09-.45-.82-1-1.76-1.65-2.57-5.48-6.85-12.56-9.69-21.02-8.45-6.08.9-10.9,3.9-14.32,8.93-2.43,3.57-3.75,7.5-3.92,11.67-.02.54-.05,1.32-.72,1.9-.46.4-1.08.56-1.84.47-5.2-.58-9.78.79-13.59,4.07-5.21,4.48-7.3,10.01-6.23,16.43,1.53,9.17,8.64,15.15,18.11,15.22,3.59.03,7.19.05,10.78.07.83,0,1.5.68,1.49,1.51,0,.83-.67,1.49-1.5,1.49Z"/>
    <circle class="cls-2" cx="41.05" cy="63.55" r="5.04"/>
    <circle class="cls-1" cx="110.04" cy="42.25" r="3.6"/>
  </g>
</svg>